<?xml version="1.0" encoding="UTF-8"?>
<svg id="Layer_1" xmlns="http://www.w3.org/2000/svg" version="1.1" viewBox="560 370 840 300">
  <!-- Generator: Adobe Illustrator 30.3.0, SVG Export Plug-In . SVG Version: 2.1.3 Build 182)  -->
  <defs>
    <style>
      .st0 {
        fill: #a9fbff;
      }

      .st1 {
        fill: #fffaf7;
      }
    </style>
  </defs>
  <g>
    <g>
      <path class="st1" d="M918.8,452.51h-29.93c.78-.11,5.65-1.11,5.65-12.53v-49.89c0-10.09-5.21-11.31-6.21-11.42h31.26c22.95,0,37.03,14.74,37.03,36.14,0,19.96-11.75,37.69-37.8,37.69ZM916.69,386.43h-9.87v58.2h12.75c16.85,0,23.95-14.74,23.95-29.05,0-17.96-8.87-29.16-26.83-29.16Z"/>
      <path class="st1" d="M985.22,452.51h-21.17c.89-.11,5.1-1.11,5.1-10.64v-26.94c0-7.87-2.66-9.31-5.76-9.31h-1.33l18.07-7.32v43.57c0,9.42,4.21,10.53,5.1,10.64Z"/>
      <path class="st1" d="M1010.61,474.13c-11.53,0-19.96-3.77-19.96-10.09,0-5.21,5.43-9.98,9.98-11.86-4.21-1.11-6.87-3.55-6.87-6.98,0-3.88,4.88-8.54,9.64-10.98-6.43-2.66-10.64-8.76-10.64-15.85,0-10.2,7.54-19.62,21.73-19.62,2.88,0,5.76.55,8.54,1.33,2.55.67,5.54,1.22,8.43,1.22,3.1,0,6.32-.67,8.76-2.22v8.54c-1,.33-6.76.55-8.54.55,2.22,2.77,3.33,6.65,3.33,10.2,0,9.42-7.21,17.85-20.84,17.85-1.55,0-2.99-.22-3.88-.33-3.88,1.77-5.88,3.77-5.88,5.54,0,1.88,3.44,3.21,7.76,3.33l12.75.33c11.31.33,15.3,5.88,15.3,11.31,0,8.43-8.98,17.74-29.6,17.74ZM1019.92,454.06s-12.31-.44-12.86-.44c-3.77,2-6.32,4.55-6.32,7.21,0,3.66,4.32,6.1,12.97,6.1,9.76,0,16.63-2.66,16.63-7.54,0-3.55-3.33-5.1-10.42-5.32ZM1013.16,405.39c-6.21,0-9.2,5.32-9.2,10.86,0,6.76,3.99,13.3,10.75,13.3,5.99,0,8.98-5.43,8.98-11.09,0-6.21-3.44-13.08-10.53-13.08Z"/>
      <path class="st1" d="M1066.94,452.51h-21.17c.89-.11,5.1-1.11,5.1-10.64v-26.94c0-7.87-2.66-9.31-5.76-9.31h-1.33l18.07-7.32v43.57c0,9.42,4.21,10.53,5.1,10.64Z"/>
      <path class="st1" d="M1090.33,454.28c-7.65,0-12.53-5.43-12.53-13.86v-32.82h-8.09l19.07-21.95v14.74h14.41v7.21h-14.41v29.38c0,6.21,2.77,8.65,6.32,8.65s7.54-2.44,9.87-5.76c-1.66,10.31-7.76,14.41-14.63,14.41Z"/>
      <path class="st1" d="M1150.2,454.84c-4.1-.67-7.87-4.43-8.54-7.54-2.77,4.55-9.42,6.87-15.74,6.87-8.43,0-14.97-4.77-14.97-12.86s9.31-15.52,29.16-19.96v-5.1c0-7.32-2.99-10.86-8.65-10.86-6.43,0-9.31,3.33-9.31,6.54,0,2.11,1,3.77,2.44,4.32l-11.31,4.43c-.67-1.55-1.33-3.66-1.33-6.1,0-8.76,8.87-15.85,21.06-15.85,12.97,0,18.07,6.76,18.07,16.07v22.39c0,6.1,2.77,10.31,8.43,10.31.44,0,1-.11,1.44-.22l-10.75,7.54ZM1140.12,427.45c-12.97,2.88-18.51,6.98-18.51,12.31,0,4.32,3.44,7.32,7.98,7.32,5.32,0,10.53-3.99,10.53-9.76v-9.87Z"/>
      <path class="st1" d="M1182.92,452.51h-20.95c.67-.11,5.1-1,5.1-10.64v-48.45c0-9.53-2.77-11.09-6.21-11.09h-1l18.18-6.87v66.41c0,9.2,3.88,10.53,4.88,10.64Z"/>
      <path class="st1" d="M925.34,557.44c-24.72,0-36.81-18.29-36.81-37.03,0-19.84,13.41-40.24,39.69-40.24,7.32,0,14.86,2,19.51,4.55v19.51c-3.44-10.2-11.09-15.52-21.06-15.52-16.63,0-25.06,14.74-25.06,29.6s8.54,30.15,25.61,30.15c7.87,0,16.52-4.43,22.06-11.42v9.98c-5.21,6.1-14.08,10.42-23.95,10.42Z"/>
      <path class="st1" d="M984.33,557.44c-17.07,0-25.28-13.19-25.28-26.72,0-14.19,9.09-28.71,26.39-28.71s25.5,13.19,25.5,26.72c0,14.19-9.09,28.71-26.61,28.71ZM983.78,509.66c-8.98,0-13.3,8.98-13.3,18.51,0,10.53,5.21,21.62,15.52,21.62,8.87,0,13.3-9.2,13.3-18.74,0-10.53-5.21-21.4-15.52-21.4Z"/>
      <path class="st1" d="M1099.97,555.78h-20.29c.78-.11,4.43-1.11,4.43-10.64v-22.06c0-9.42-3.33-12.53-7.76-12.53-6.65,0-11.75,5.54-11.75,12.53v22.06c0,9.31,3.66,10.53,4.55,10.64h-19.96c.78-.11,4.32-1.11,4.32-10.64v-22.06c0-9.2-3.55-12.53-7.65-12.53-6.32,0-11.86,5.54-11.86,12.53v22.06c0,9.42,3.99,10.53,4.77,10.64h-20.73c.89-.11,4.99-1.11,4.99-10.42v-26.5c0-8.54-2.33-9.98-5.65-9.98h-1.33l17.63-7.32.11,9.2c3.88-5.43,11.2-8.76,17.07-8.76s10.31,3.1,11.75,8.76c3.44-4.77,10.53-8.76,17.96-8.76,9.98,0,14.52,7.65,14.52,18.29v24.83c0,9.2,3.88,10.53,4.88,10.64Z"/>
      <path class="st1" d="M1188.01,555.78h-20.29c.78-.11,4.43-1.11,4.43-10.64v-22.06c0-9.42-3.33-12.53-7.76-12.53-6.65,0-11.75,5.54-11.75,12.53v22.06c0,9.31,3.66,10.53,4.55,10.64h-19.96c.78-.11,4.32-1.11,4.32-10.64v-22.06c0-9.2-3.55-12.53-7.65-12.53-6.32,0-11.86,5.54-11.86,12.53v22.06c0,9.42,3.99,10.53,4.77,10.64h-20.73c.89-.11,4.99-1.11,4.99-10.42v-26.5c0-8.54-2.33-9.98-5.65-9.98h-1.33l17.63-7.32.11,9.2c3.88-5.43,11.2-8.76,17.07-8.76s10.31,3.1,11.75,8.76c3.44-4.77,10.53-8.76,17.96-8.76,9.98,0,14.52,7.65,14.52,18.29v24.83c0,9.2,3.88,10.53,4.88,10.64Z"/>
      <path class="st1" d="M1218.62,557.44c-14.97,0-23.5-12.19-23.5-26.72,0-15.63,9.2-28.71,23.39-28.71,13.41,0,20.07,12.2,20.29,28.16h-32.82c.78,10.2,7.21,18.62,16.85,18.62,5.99,0,12.42-3.22,16.74-8.76-2.66,11.53-10.2,17.41-20.95,17.41ZM1217.95,508.89c-7.1,0-11.53,7.65-11.97,15.08h21.73c0-7.32-2.88-15.08-9.76-15.08Z"/>
      <path class="st1" d="M1272.62,512.66c-5.77,0-11.42,6.65-11.42,19.07v13.41c0,9.2,3.99,10.53,4.99,10.64h-20.73c.78-.11,4.88-1.11,4.88-10.64v-27.49c0-7.65-2.33-9.09-5.32-9.09h-1.22l16.96-6.98.11,12.75c2.22-5.99,8.09-12.31,14.97-12.31,1.77,0,3.55.33,5.32,1.33v14.74c-1.66-3.1-4.99-5.43-8.54-5.43Z"/>
      <path class="st1" d="M1308.32,557.44c-14.86,0-22.62-11.31-22.62-25.5,0-18.18,11.42-29.93,24.94-29.93,9.2,0,16.19,6.21,16.52,16.08l-11.09,4.66c.33-1.11.67-2.44.67-3.88,0-5.54-3.33-8.98-8.2-8.98-7.32,0-12.31,7.54-12.31,17.96s5.43,21.17,15.96,21.17c5.43,0,11.2-3.1,15.96-9.31-2.44,11.64-10.98,17.74-19.84,17.74Z"/>
      <path class="st1" d="M1358.11,557.44c-14.97,0-23.5-12.19-23.5-26.72,0-15.63,9.2-28.71,23.39-28.71,13.41,0,20.07,12.2,20.29,28.16h-32.82c.78,10.2,7.21,18.62,16.85,18.62,5.99,0,12.42-3.22,16.74-8.76-2.66,11.53-10.2,17.41-20.95,17.41ZM1357.44,508.89c-7.1,0-11.53,7.65-11.97,15.08h21.73c0-7.32-2.88-15.08-9.76-15.08Z"/>
      <path class="st1" d="M925.34,660.72c-24.72,0-36.81-18.29-36.81-37.03,0-19.84,13.41-40.24,39.69-40.24,7.32,0,14.86,2,19.51,4.55v19.51c-3.44-10.2-11.09-15.52-21.06-15.52-16.63,0-25.06,14.74-25.06,29.6s8.54,30.15,25.61,30.15c7.87,0,16.52-4.43,22.06-11.42v9.98c-5.21,6.1-14.08,10.42-23.95,10.42Z"/>
      <path class="st1" d="M984.33,660.72c-17.07,0-25.28-13.19-25.28-26.72,0-14.19,9.09-28.71,26.39-28.71s25.5,13.19,25.5,26.72c0,14.19-9.09,28.71-26.61,28.71ZM983.78,612.94c-8.98,0-13.3,8.98-13.3,18.51,0,10.53,5.21,21.62,15.52,21.62,8.87,0,13.3-9.2,13.3-18.74,0-10.53-5.21-21.4-15.52-21.4Z"/>
      <path class="st1" d="M1059.06,661.38c-4.1-.67-7.87-4.43-8.54-7.54-2.77,4.55-9.42,6.87-15.74,6.87-8.43,0-14.97-4.77-14.97-12.86s9.31-15.52,29.16-19.96v-5.1c0-7.32-2.99-10.86-8.65-10.86-6.43,0-9.31,3.33-9.31,6.54,0,2.11,1,3.77,2.44,4.32l-11.31,4.43c-.67-1.55-1.33-3.66-1.33-6.1,0-8.76,8.87-15.85,21.06-15.85,12.97,0,18.07,6.76,18.07,16.08v22.39c0,6.1,2.77,10.31,8.43,10.31.44,0,1-.11,1.44-.22l-10.75,7.54ZM1048.97,634c-12.97,2.88-18.51,6.98-18.51,12.31,0,4.32,3.44,7.32,7.98,7.32,5.32,0,10.53-3.99,10.53-9.76v-9.87Z"/>
      <path class="st1" d="M1091.77,659.06h-20.95c.67-.11,5.1-1,5.1-10.64v-48.45c0-9.53-2.77-11.09-6.21-11.09h-1l18.18-6.87v66.41c0,9.2,3.88,10.53,4.88,10.64Z"/>
      <path class="st1" d="M1118.61,659.06h-21.17c.89-.11,5.1-1.11,5.1-10.64v-26.94c0-7.87-2.66-9.31-5.76-9.31h-1.33l18.07-7.32v43.57c0,9.42,4.21,10.53,5.1,10.64Z"/>
      <path class="st1" d="M1142,660.83c-7.65,0-12.53-5.43-12.53-13.86v-32.82h-8.09l19.07-21.95v14.74h14.41v7.21h-14.41v29.38c0,6.21,2.77,8.65,6.32,8.65s7.54-2.44,9.87-5.76c-1.66,10.31-7.76,14.41-14.63,14.41Z"/>
      <path class="st1" d="M1181.92,659.06h-21.17c.89-.11,5.1-1.11,5.1-10.64v-26.94c0-7.87-2.66-9.31-5.76-9.31h-1.33l18.07-7.32v43.57c0,9.42,4.21,10.53,5.1,10.64Z"/>
      <path class="st1" d="M1214.07,660.72c-17.07,0-25.28-13.19-25.28-26.72,0-14.19,9.09-28.71,26.39-28.71s25.5,13.19,25.5,26.72c0,14.19-9.09,28.71-26.61,28.71ZM1213.52,612.94c-8.98,0-13.3,8.98-13.3,18.51,0,10.53,5.21,21.62,15.52,21.62,8.87,0,13.3-9.2,13.3-18.74,0-10.53-5.21-21.4-15.52-21.4Z"/>
      <path class="st1" d="M1300.45,659.06h-20.4c.78-.11,4.43-1.11,4.43-10.31v-23.06c0-8.2-3.44-11.86-8.43-11.86-6.1,0-12.31,5.54-12.31,12.75v22.17c0,8.98,3.77,10.2,4.77,10.31h-20.84c.89-.11,5.1-1.11,5.1-10.42v-26.5c0-8.65-2.44-9.98-5.65-9.98h-1.33l17.63-7.32.11,9.2c3.55-4.99,11.09-8.76,17.07-8.76,8.31,0,14.97,4.99,14.97,17.52v25.61c0,9.2,3.88,10.53,4.88,10.64Z"/>
    </g>
    <rect class="st1" x="968.21" y="382.33" width="10.84" height="10.84" transform="translate(559.35 -574.89) rotate(45)"/>
    <rect class="st1" x="1049.93" y="382.33" width="10.84" height="10.84" transform="translate(583.29 -632.68) rotate(45)"/>
    <rect class="st1" x="1101.93" y="589.81" width="10.84" height="10.84" transform="translate(745.23 -608.68) rotate(45)"/>
    <rect class="st1" x="1165.25" y="589.81" width="10.84" height="10.84" transform="translate(763.77 -653.45) rotate(45)"/>
  </g>
  <g>
    <rect class="st1" x="603.73" y="522.32" width="13.17" height="13.17" transform="translate(-193.7 604.94) rotate(-46.31)"/>
    <rect class="st1" x="626.26" y="524.58" width="7.98" height="7.98" transform="translate(-190.36 585.2) rotate(-43.93)"/>
  </g>
  <g>
    <rect class="st1" x="609.29" y="548.48" width="12.44" height="12.44" transform="translate(-158.85 849.5) rotate(-62.87)"/>
    <rect class="st1" x="631.61" y="544.96" width="7.54" height="7.54" transform="translate(-155.15 831.33) rotate(-60.49)"/>
  </g>
  <g>
    <rect class="st1" x="619.43" y="572.69" width="12.44" height="12.44" transform="translate(-26.84 1127.38) rotate(-82.83)"/>
    <rect class="st1" x="638.73" y="564.12" width="7.54" height="7.54" transform="translate(-24.15 1107.23) rotate(-80.45)"/>
  </g>
  <g>
    <rect class="st1" x="635.3" y="593.54" width="12.44" height="12.44" transform="translate(107.95 1297.3) rotate(-95.66)"/>
    <rect class="st1" x="651.54" y="581.14" width="7.54" height="7.54" transform="translate(108.83 1272.59) rotate(-93.28)"/>
  </g>
  <rect class="st1" x="657.37" y="609.01" width="12.44" height="12.44" transform="translate(328.14 1455.67) rotate(-111.07)"/>
  <rect class="st1" x="668.29" y="594.5" width="7.54" height="7.54" transform="translate(320.75 1426.62) rotate(-108.69)"/>
  <g>
    <rect class="st1" x="607.23" y="493.71" width="13.17" height="13.17" transform="translate(-163.86 350.99) rotate(-28.31)"/>
    <rect class="st1" x="627.53" y="502.19" width="7.98" height="7.98" transform="translate(-157.77 327.15) rotate(-25.93)"/>
  </g>
  <path class="st1" d="M590.13,477.93c-5.32,1.73-5.07,8.43-5.07,8.43-3.76-.62-8.88,1.86-8.88,1.86.38,3.45,5.95,7.74,5.95,7.74-4.38,7.16-1.14,9.72-1.14,9.72,0,0,6.79-10.63,18.27-9.39,0,0-8.52-7.68-9.14-18.35Z"/>
  <path class="st1" d="M580.45,515.45c-4.39,3.47-1.82,9.67-1.82,9.67-3.74.72-7.68,4.83-7.68,4.83,1.55,3.1,8.27,5.19,8.27,5.19-1.62,8.23,2.31,9.51,2.31,9.51,0,0,2.68-12.33,13.87-15.16,0,0-10.66-4.24-14.95-14.03Z"/>
  <path class="st1" d="M582,549.69c-3.28,4.53.86,9.8.86,9.8-3.41,1.71-6.09,6.73-6.09,6.73,2.33,2.57,9.37,2.76,9.37,2.76.67,8.36,4.8,8.53,4.8,8.53,0,0-.76-12.59,9.25-18.35,0,0-11.41-1.2-18.19-9.47Z"/>
  <path class="st1" d="M590.85,582.01c-2.41,5.05,2.61,9.48,2.61,9.48-3.05,2.3-4.77,7.71-4.77,7.71,2.76,2.11,9.71,1.03,9.71,1.03,2.16,8.11,6.26,7.52,6.26,7.52,0,0-3.01-12.25,5.79-19.71,0,0-11.44.87-19.59-6.03Z"/>
  <path class="st1" d="M610.89,612.66c-.73,5.55,5.41,8.21,5.41,8.21-2.19,3.12-2.16,8.81-2.16,8.81,3.27,1.15,9.55-2.02,9.55-2.02,4.56,7.04,8.27,5.22,8.27,5.22,0,0-6.65-10.72-.58-20.54,0,0-10.61,4.37-20.5.32Z"/>
  <path class="st1" d="M638.42,635.91c1.09,5.49,7.77,6.04,7.77,6.04-1.07,3.66.79,9.04.79,9.04,3.47.04,8.39-4.99,8.39-4.99,6.59,5.2,9.51,2.28,9.51,2.28,0,0-9.74-8.01-7.16-19.26,0,0-8.64,7.55-19.31,6.89Z"/>
  <rect class="st1" x="676.23" y="583.96" width="4.47" height="4.47" transform="translate(340.65 1416.74) rotate(-108.69)"/>
  <rect class="st1" x="662.02" y="572.82" width="4.47" height="4.47" transform="translate(157.51 1292.79) rotate(-95.66)"/>
  <rect class="st1" x="651.36" y="558.47" width="4.47" height="4.47" transform="translate(84.58 1207.08) rotate(-89.27)"/>
  <rect class="st1" x="644.76" y="542.98" width="4.47" height="4.47" transform="translate(-118.01 906.64) rotate(-65.41)"/>
  <rect class="st1" x="641.79" y="526.07" width="4.47" height="4.47" transform="translate(-167.78 715.01) rotate(-52.31)"/>
  <rect class="st1" x="643.1" y="507.65" width="4.47" height="4.47" transform="translate(-143.3 276.44) rotate(-21.82)"/>
  <path class="st1" d="M847.54,531.42c.04-1.42.09-2.83.17-4.25.23-3.83.12-6.06-.26-9.34,0-.07,0-.13,0-.13h0c-.19-1.6-.44-3.45-.76-5.88-.93-7.23-5.29-13.06-5.75-20.33-.26-4.1-.76-5.29-.19-9.98-13.96,5.06-15.65,11.47-15.94,24.03-.9-6.66-5.36-12.73-11.45-15.57-3.1-1.45-7.21-2.89-7.39-6.31-8.08,7.05-11.65,18.85-8.84,29.2-3.54-4.45-6.62-7.6-12.25-8.37-4.09-.56-9.01-.63-14.47.97,2.81.44,3.51,5.27,4.73,9.26-.02,0-.04,0-.06,0,.41,2.56.69,5.17.79,7.82,1.06,27.22-14.79,51.17-38.17,61.75l5.25,10.38h0l26.32,52.01c43.68-17.64,68.52-51.29,76.13-95.05,0-.02.01-.04.01-.05,1.41-6.13,1.96-13.71,2.14-20.14Z"/>
  <g>
    <path class="st1" d="M611.6,445.68l.02-.08c-.23-.13-.42-.25-.62-.38l-1.99-1.53c-3.24-3.19-1.38-6.32-1.38-6.32-5.58.36-7,6.91-7,6.91-3.49-1.54-9.06-.4-9.06-.4-.49,3.44,3.84,8.98,3.84,8.98-6.02,5.84-3.52,9.13-3.52,9.13,2.16-1.54,3.69-2.29,6.98-.85l6.91,4.24c.09.07.18.12.28.19v-.02s46.07,28.22,46.07,28.22c2.18-4,4.75-7.75,7.68-11.21l-48.2-36.87Z"/>
    <path class="st1" d="M639.93,414.36c-1.37-3.62,1.07-5.7,1.07-5.7-5.39-1.48-8.87,4.24-8.87,4.24-2.79-2.59-8.43-3.34-8.43-3.34-1.59,3.08.7,9.73.7,9.73-7.59,3.56-6.3,7.48-6.3,7.48,2.54-.75,4.23-.96,6.87,1.47l4.85,5.85c.17.23.32.44.49.68l.03-.05,34.95,42.11c3.27-3.03,6.86-5.73,10.71-8.05l-36.09-54.43Z"/>
    <path class="st1" d="M679.83,398.84c-.08-4.04,3.07-5.09,3.07-5.09-4.38-3.32-9.65.63-9.65.63-1.61-3.39-6.48-6.13-6.48-6.13-2.58,2.24-2.91,9.15-2.91,9.15-8.23.48-8.48,4.53-8.48,4.53,1.09.1,2.12.32,3.09.79.93.44,1.63,1.25,2.02,2.21l24.33,59.42c4.08-1.69,8.38-2.98,12.86-3.82l-17.84-61.68Z"/>
    <path class="st1" d="M718.96,459.99l3.23-65.75c1.1-3.4,4.08-3.61,4.08-3.61-3.42-4.31-9.5-1.79-9.5-1.79-.71-3.68-4.75-7.55-4.75-7.55-3.05,1.52-5.1,8.13-5.1,8.13-8.09-1.59-9.35,2.27-9.35,2.27.38.14.75.29,1.11.46,1.97.94,3.2,2.95,3.33,5.13l3.53,62.25c4.57-.31,9.05-.14,13.42.46Z"/>
    <path class="st1" d="M762.95,406.35h0s.01-.04.02-.07l1.24-3.36h-.03c2.12-3.72,5.51-2.9,5.51-2.9-2.02-5.28-8.77-4.68-8.77-4.68.43-3.83-2.33-8.86-2.33-8.86-3.46.56-7.5,6.4-7.5,6.4-7.45-4.05-9.86-.65-9.86-.65,1.35,1.03,2.46,2.21,3.05,3.99.22.67.23,1.4.05,2.08l-16,63.68c4.27,1.24,8.36,2.92,12.24,4.96l22.38-60.6Z"/>
    <path class="st1" d="M757.6,479.82l41.13-51.72.1.02c.13-.23.26-.43.39-.64l1.87-2.35c3.09-2.83,6.05-1.08,6.05-1.08-.38-5.64-7-7.06-7-7.06,1.54-3.53.38-9.16.38-9.16-3.47-.49-9.06,3.91-9.06,3.91-5.92-6.06-9.24-3.52-9.24-3.52.89,1.24,1.56,2.54,1.71,4.16.09.97-.15,1.95-.67,2.77l-35.61,56.1c3.59,2.52,6.93,5.38,9.95,8.56Z"/>
    <path class="st1" d="M830.05,449.79c2.63-2.94,3.3-8.77,3.3-8.77-3.22-1.59-10.05.9-10.05.9-3.81-7.79-7.85-6.38-7.85-6.38.67,2.13.85,4.23-.51,6.75-.49.9-1.16,1.69-1.95,2.35l-50.11,41.47c.12.16.24.33.36.5.11.16.23.32.35.48.64.88,1.27,1.78,1.86,2.69,1.68,2.31,3.21,4.76,4.55,7.38l59.18-39.47c3.41-1.08,5.4,1.21,5.4,1.21,1.44-5.6-4.54-9.1-4.54-9.1Z"/>
    <path class="st0" d="M757.56,479.87l.04-.05c-3.02-3.18-6.36-6.04-9.95-8.56l-.1.16c3.62,2.47,6.96,5.32,10.01,8.46Z"/>
    <path class="st0" d="M763.6,487.08c-.11-.16-.23-.32-.35-.48.12.16.23.32.35.48Z"/>
  </g>
</svg>
