<svg width="194" height="51" viewBox="0 0 194 51" fill="none" xmlns="http://www.w3.org/2000/svg">
<g clip-path="url(#clip0_2360_146)">
<mask id="mask0_2360_146" style="mask-type:luminance" maskUnits="userSpaceOnUse" x="0" y="0" width="194" height="51">
<path d="M194 0H0V51H194V0Z" fill="white"/>
</mask>
<g mask="url(#mask0_2360_146)">
<path d="M0 1.13199C0 0.645929 0.227562 0.322936 0.685847 0.16144C0.815431 0.130081 0.945016 0.0971545 1.04299 0.0971545C1.33693 0.0971545 1.59926 0.225725 1.82682 0.517359L15.0444 17.647L29.9576 0.454642C30.1883 0.195934 30.4143 0.0657959 30.6451 0.0657959C30.8726 0.0657959 31.1002 0.163007 31.3277 0.357431C31.8524 0.779203 31.8856 1.23077 31.4273 1.78268L16.3165 19.2996L39.5216 49.3489C39.6843 49.5747 39.7823 49.7989 39.7823 49.9949C39.7823 50.2881 39.6195 50.5123 39.3256 50.7412C39.0965 50.9043 38.8689 50.9999 38.6714 50.967C38.3774 50.967 38.1499 50.8071 37.9207 50.5139L14.9796 20.822L2.0212 35.8114V49.9322C2.0212 50.6127 1.69565 50.9341 1.01139 50.9341C0.32554 50.9341 0 50.6127 0 49.9322L0 1.13199Z" fill="white"/>
</g>
<mask id="mask1_2360_146" style="mask-type:luminance" maskUnits="userSpaceOnUse" x="0" y="0" width="194" height="51">
<path d="M194 0H0V51H194V0Z" fill="white"/>
</mask>
<g mask="url(#mask1_2360_146)">
<path d="M42.7992 25.5149C42.7992 29.7577 43.8422 33.7073 45.9645 37.3026C48.0868 40.8963 50.9582 43.7436 54.5818 45.8509C58.2039 47.9567 62.1862 48.9931 66.4909 48.9931C70.8004 48.9931 74.7811 47.9567 78.4032 45.8509C82.0268 43.7436 84.8966 40.8963 87.0189 37.3026C89.1413 33.7073 90.1874 29.7577 90.1874 25.5149C90.1874 21.2423 89.1413 17.2911 87.0189 13.6959C84.8966 10.1022 82.0268 7.2548 78.4032 5.14751C74.7811 3.04492 70.7988 1.97559 66.4909 1.97559C62.1846 1.97559 58.2039 3.04648 54.5818 5.14751C50.9582 7.2548 48.0868 10.1022 45.9645 13.6959C43.8422 17.2911 42.7992 21.2423 42.7992 25.5149ZM40.8096 25.4835C40.8096 20.8519 41.9505 16.6106 44.2356 12.6924C46.5524 8.77569 49.6513 5.69942 53.602 3.43219C57.5512 1.13204 61.8259 0 66.4909 0C71.1575 0 75.4354 1.13204 79.383 3.43219C83.3321 5.69942 86.4643 8.77569 88.7478 12.6924C91.0676 16.6106 92.2102 20.8519 92.2102 25.4835C92.2102 30.1121 91.0661 34.3878 88.7478 38.3061C86.4658 42.2243 83.3321 45.299 79.383 47.5992C75.4354 49.8648 71.1575 51 66.4909 51C61.8259 51 57.5512 49.8648 53.602 47.5992C49.6513 45.299 46.5524 42.2243 44.2356 38.3061C41.9505 34.3878 40.8096 30.1136 40.8096 25.4835Z" fill="white"/>
</g>
<mask id="mask2_2360_146" style="mask-type:luminance" maskUnits="userSpaceOnUse" x="0" y="0" width="194" height="51">
<path d="M194 0H0V51H194V0Z" fill="white"/>
</mask>
<g mask="url(#mask2_2360_146)">
<path d="M108.075 28.4281L121.52 48.1495L134.836 28.3654L121.454 3.23779L108.075 28.4281ZM120.509 0.647568C120.934 -0.0329132 121.945 -0.0329132 122.334 0.647568L148.248 49.476C148.346 49.6704 148.412 49.8648 148.412 50.0295C148.412 50.3525 148.216 50.6096 147.854 50.804C147.66 50.9012 147.464 50.9655 147.298 50.9655C146.972 50.9655 146.712 50.7742 146.517 50.3854L135.877 30.3724L122.402 50.4512C121.975 51.0627 121.095 51.0988 120.703 50.4512L107.094 30.4366L96.4551 50.3854C96.2623 50.7397 95.9984 50.9342 95.6728 50.9655C95.5101 50.9655 95.3141 50.9028 95.1182 50.804C94.7578 50.6096 94.5635 50.3525 94.5635 50.0295C94.5635 49.8664 94.6283 49.6704 94.7247 49.476L120.509 0.647568Z" fill="white"/>
</g>
<mask id="mask3_2360_146" style="mask-type:luminance" maskUnits="userSpaceOnUse" x="0" y="0" width="194" height="51">
<path d="M194 0H0V51H194V0Z" fill="white"/>
</mask>
<g mask="url(#mask3_2360_146)">
<path d="M120.509 0.647568C120.934 -0.0329132 121.945 -0.0329132 122.334 0.647568L148.248 49.476C148.346 49.6704 148.412 49.8648 148.412 50.0295C148.412 50.3525 148.216 50.6096 147.854 50.8056C147.66 50.9028 147.464 50.9655 147.298 50.9655C146.972 50.9655 146.712 50.7758 146.517 50.3854L135.877 30.3739L122.402 50.4512C121.975 51.0643 121.095 51.0972 120.703 50.4512L107.094 30.4351L96.4551 50.3854C96.2623 50.7397 95.9984 50.9357 95.6728 50.9655C95.5101 50.9655 95.3141 50.9044 95.1182 50.8056C94.7578 50.6096 94.5635 50.3525 94.5635 50.0295C94.5635 49.8664 94.6283 49.6704 94.7247 49.476L120.509 0.647568Z" fill="white"/>
</g>
<mask id="mask4_2360_146" style="mask-type:luminance" maskUnits="userSpaceOnUse" x="0" y="0" width="194" height="51">
<path d="M194 0H0V51H194V0Z" fill="white"/>
</mask>
<g mask="url(#mask4_2360_146)">
<path d="M160.321 48.9257H191.127L160.321 4.30559V48.9257ZM158.33 1.1321C158.33 0.646046 158.558 0.323053 159.016 0.161556C159.147 0.127062 159.277 0.0957031 159.376 0.0957031C159.669 0.0957031 159.931 0.258768 160.127 0.581761L192.011 46.7572V1.13054C192.011 0.451623 192.338 0.125494 192.991 0.125494C193.677 0.125494 194.002 0.451623 194.002 1.13054V49.9292C194.002 50.6081 193.612 50.9326 192.859 50.9326H159.31C158.69 50.9326 158.332 50.5422 158.332 49.9292L158.33 1.1321Z" fill="white"/>
</g>
<mask id="mask5_2360_146" style="mask-type:luminance" maskUnits="userSpaceOnUse" x="0" y="0" width="194" height="51">
<path d="M194 0H0V51H194V0Z" fill="white"/>
</mask>
<g mask="url(#mask5_2360_146)">
<path d="M158.33 1.132C158.33 0.645943 158.558 0.32295 159.016 0.161453C159.147 0.128527 159.277 0.097168 159.376 0.097168C159.669 0.097168 159.931 0.258665 160.127 0.581658L192.011 46.7571V1.13043C192.011 0.45152 192.338 0.126959 192.991 0.126959C193.677 0.126959 194.002 0.45152 194.002 1.13043V49.9291C194.002 50.6095 193.612 50.931 192.859 50.931H159.31C158.689 50.931 158.332 50.5421 158.332 49.9291L158.33 1.132Z" fill="white"/>
</g>
<mask id="mask6_2360_146" style="mask-type:luminance" maskUnits="userSpaceOnUse" x="0" y="0" width="194" height="51">
<path d="M194 0H0V51H194V0Z" fill="white"/>
</mask>
<g mask="url(#mask6_2360_146)">
<path d="M88.2811 25.5493C88.2811 37.4797 78.5354 47.1507 66.5094 47.1507C54.4849 47.1507 44.7393 37.4797 44.7393 25.5493C44.7393 13.6205 54.4849 3.948 66.5094 3.948C78.5354 3.948 88.2811 13.6205 88.2811 25.5493Z" fill="white"/>
</g>
</g>
<defs>
<clipPath id="clip0_2360_146">
<rect width="194" height="51" fill="white"/>
</clipPath>
</defs>
</svg>
